<svg data-name="Layer 1" xmlns="http://www.w3.org/2000/svg" viewBox="0 0 22.42 24.68"><defs><linearGradient id="a" x1="21.11" y1="-152.83" x2="4.85" y2="-136.57" gradientTransform="matrix(1 0 0 -.99 -9.09 -128.07)" gradientUnits="userSpaceOnUse"><stop offset="0" stop-color="#00a0ff"/><stop offset=".01" stop-color="#00a1ff"/><stop offset=".26" stop-color="#00beff"/><stop offset=".51" stop-color="#00d2ff"/><stop offset=".76" stop-color="#00dfff"/><stop offset="1" stop-color="#00e3ff"/></linearGradient><linearGradient id="b" x1="32.76" y1="-141.89" x2="9.33" y2="-141.89" gradientTransform="matrix(1 0 0 -.99 -9.09 -128.07)" gradientUnits="userSpaceOnUse"><stop offset="0" stop-color="#ffe000"/><stop offset=".41" stop-color="#ffbd00"/><stop offset=".78" stop-color="orange"/><stop offset="1" stop-color="#ff9c00"/></linearGradient><linearGradient id="c" x1="15.96" y1="-147.75" x2="-6.09" y2="-125.71" gradientTransform="matrix(1 0 0 -.99 -9.09 -128.07)" gradientUnits="userSpaceOnUse"><stop offset="0" stop-color="#ff3a44"/><stop offset="1" stop-color="#c31162"/></linearGradient><linearGradient id="d" x1="-1.02" y1="-153.01" x2="8.82" y2="-143.17" gradientTransform="matrix(1 0 0 -.99 -9.09 -128.07)" gradientUnits="userSpaceOnUse"><stop offset="0" stop-color="#32a071"/><stop offset=".07" stop-color="#2da771"/><stop offset=".48" stop-color="#15cf74"/><stop offset=".8" stop-color="#06e775"/><stop offset="1" stop-color="#00f076"/></linearGradient></defs><path d="M1 .55A1.92 1.92 0 0 0 .58 1.9v21.22A1.9 1.9 0 0 0 1 24.47l.07.06 12-11.88v-.28L1.1.48z" transform="translate(-.58 -.17)" fill="url(#a)"/><path d="M17.14 16.61l-4-4v-.28l4-4h.09l4.77 2.8c1.36.75 1.36 2 0 2.76l-4.75 2.67z" transform="translate(-.58 -.17)" fill="url(#b)"/><path d="M17.23 16.56l-4.1-4L1 24.47a1.6 1.6 0 0 0 2 .06l14.18-8" transform="translate(-.58 -.17)" fill="url(#c)"/><path d="M17.23 8.45L3.05.49A1.6 1.6 0 0 0 1 .55l12.1 12z" transform="translate(-.58 -.17)" fill="url(#d)"/></svg>